<svg width="129" height="1735" viewBox="0 0 129 1735" fill="none" xmlns="http://www.w3.org/2000/svg">
<path d="M1.48093 44.0667L63.9902 80.1564L1.48093 116.246L1.48093 44.0667Z" stroke="#F7FFF9"/>
<path d="M65.4907 80.3954L128 116.485L65.4907 152.575L65.4907 80.3954Z" stroke="#F7FFF9"/>
<path d="M65.4907 6.5831L128 42.6729L65.4907 78.7626L65.4907 6.5831Z" stroke="#F7FFF9"/>
<path d="M65.4907 300.679L128 336.769L65.4907 372.859L65.4907 300.679Z" stroke="#F7FFF9"/>
<path d="M65.4907 154.208L128 190.298L65.4907 226.387L65.4907 154.208Z" stroke="#F7FFF9"/>
<path d="M1.48093 117.881L63.9902 153.971L1.48093 190.06L1.48093 117.881Z" stroke="#F7FFF9"/>
<path d="M1.48093 337.01L63.9902 373.1L1.48093 409.19L1.48093 337.01Z" stroke="#F7FFF9"/>
<path d="M65.4907 373.339L128 409.429L65.4907 445.518L65.4907 373.339Z" stroke="#F7FFF9"/>
<path d="M65.4907 447.151L128 483.241L65.4907 519.331L65.4907 447.151Z" stroke="#F7FFF9"/>
<path d="M1.48093 410.822L63.9902 446.912L1.48093 483.002L1.48093 410.822Z" stroke="#F7FFF9"/>
<path d="M1.48093 190.538L63.9902 226.628L1.48093 262.718L1.48093 190.538Z" stroke="#F7FFF9"/>
<path d="M65.4907 226.867L128 262.957L65.4907 299.047L65.4907 226.867Z" stroke="#F7FFF9"/>
<path d="M1.48093 264.349L63.9902 300.439L1.48093 336.528L1.48093 264.349Z" stroke="#F7FFF9"/>
<path d="M1.48093 483.482L63.9902 519.572L1.48093 555.661L1.48093 483.482Z" stroke="#F7FFF9"/>
<path d="M65.4907 519.812L128 555.902L65.4907 591.992L65.4907 519.812Z" stroke="#F7FFF9"/>
<path d="M65.4907 740.095L128 776.184L65.4907 812.274L65.4907 740.095Z" stroke="#F7FFF9"/>
<path d="M65.4907 593.623L128 629.713L65.4907 665.802L65.4907 593.623Z" stroke="#F7FFF9"/>
<path d="M1.48093 557.294L63.9902 593.384L1.48093 629.474L1.48093 557.294Z" stroke="#F7FFF9"/>
<path d="M1.48093 776.423L63.9902 812.513L1.48093 848.603L1.48093 776.423Z" stroke="#F7FFF9"/>
<path d="M65.4907 812.756L128 848.846L65.4907 884.935L65.4907 812.756Z" stroke="#F7FFF9"/>
<path d="M1.48093 850.236L63.9902 886.326L1.48093 922.415L1.48093 850.236Z" stroke="#F7FFF9"/>
<path d="M1.48093 629.954L63.9902 666.043L1.48093 702.133L1.48093 629.954Z" stroke="#F7FFF9"/>
<path d="M65.4907 666.282L128 702.372L65.4907 738.462L65.4907 666.282Z" stroke="#F7FFF9"/>
<path d="M1.48093 703.766L63.9902 739.856L1.48093 775.945L1.48093 703.766Z" stroke="#F7FFF9"/>
<line x1="1.30593" y1="43.397" x2="65.3153" y2="5.91409" stroke="#F7FFF9"/>
<path d="M1.48093 850.065L63.9902 886.155L1.48093 922.245L1.48093 850.065Z" stroke="#F7FFF9"/>
<path d="M65.4907 886.394L128 922.484L65.4907 958.573L65.4907 886.394Z" stroke="#F7FFF9"/>
<path d="M65.4907 812.582L128 848.671L65.4907 884.761L65.4907 812.582Z" stroke="#F7FFF9"/>
<path d="M65.4907 1106.68L128 1142.77L65.4907 1178.86L65.4907 1106.68Z" stroke="#F7FFF9"/>
<path d="M65.4907 960.206L128 996.296L65.4907 1032.39L65.4907 960.206Z" stroke="#F7FFF9"/>
<path d="M1.48093 923.879L63.9902 959.969L1.48093 996.059L1.48093 923.879Z" stroke="#F7FFF9"/>
<path d="M1.48093 1143.01L63.9902 1179.1L1.48093 1215.19L1.48093 1143.01Z" stroke="#F7FFF9"/>
<path d="M65.4907 1179.34L128 1215.43L65.4907 1251.52L65.4907 1179.34Z" stroke="#F7FFF9"/>
<path d="M65.4907 1253.15L128 1289.24L65.4907 1325.33L65.4907 1253.15Z" stroke="#F7FFF9"/>
<path d="M1.48093 1216.82L63.9902 1252.91L1.48093 1289L1.48093 1216.82Z" stroke="#F7FFF9"/>
<path d="M1.48093 996.537L63.9902 1032.63L1.48093 1068.72L1.48093 996.537Z" stroke="#F7FFF9"/>
<path d="M65.4907 1032.87L128 1068.96L65.4907 1105.05L65.4907 1032.87Z" stroke="#F7FFF9"/>
<path d="M1.48093 1070.35L63.9902 1106.44L1.48093 1142.53L1.48093 1070.35Z" stroke="#F7FFF9"/>
<path d="M1.48093 1289.48L63.9902 1325.57L1.48093 1361.66L1.48093 1289.48Z" stroke="#F7FFF9"/>
<path d="M65.4907 1325.81L128 1361.9L65.4907 1397.99L65.4907 1325.81Z" stroke="#F7FFF9"/>
<path d="M65.4907 1546.09L128 1582.18L65.4907 1618.27L65.4907 1546.09Z" stroke="#F7FFF9"/>
<path d="M65.4907 1399.62L128 1435.71L65.4907 1471.8L65.4907 1399.62Z" stroke="#F7FFF9"/>
<path d="M1.48093 1363.29L63.9902 1399.38L1.48093 1435.47L1.48093 1363.29Z" stroke="#F7FFF9"/>
<path d="M1.48093 1582.42L63.9902 1618.51L1.48093 1654.6L1.48093 1582.42Z" stroke="#F7FFF9"/>
<path d="M65.4907 1618.75L128 1654.84L65.4907 1690.93L65.4907 1618.75Z" stroke="#F7FFF9"/>
<path d="M1.48093 1656.23L63.9902 1692.32L1.48093 1728.41L1.48093 1656.23Z" stroke="#F7FFF9"/>
<path d="M1.48093 1435.95L63.9902 1472.04L1.48093 1508.13L1.48093 1435.95Z" stroke="#F7FFF9"/>
<path d="M65.4907 1472.28L128 1508.37L65.4907 1544.46L65.4907 1472.28Z" stroke="#F7FFF9"/>
<path d="M1.48093 1509.76L63.9902 1545.85L1.48093 1581.94L1.48093 1509.76Z" stroke="#F7FFF9"/>
<line x1="1.30593" y1="849.395" x2="65.3153" y2="811.912" stroke="#F7FFF9"/>
</svg>
